<mxfile host="app.diagrams.net" modified="2023-05-26T05:51:54.206Z" agent="Mozilla/5.0 (Windows NT 10.0; Win64; x64) AppleWebKit/537.36 (KHTML, like Gecko) Chrome/112.0.0.0 Safari/537.36 OPR/98.0.0.0" etag="_iEFhDkqDXPdFf2P7Y_B" version="21.3.4" type="github">
  <diagram name="Page-1" id="e6GKfEfCSmbbXhmYiS7S">
    <mxGraphModel dx="1850" dy="524" grid="1" gridSize="10" guides="1" tooltips="1" connect="1" arrows="1" fold="1" page="1" pageScale="1" pageWidth="850" pageHeight="1100" math="0" shadow="0">
      <root>
        <mxCell id="0" />
        <mxCell id="1" parent="0" />
        <mxCell id="_3qlMYkyY0_uglncItlu-11" value="" style="whiteSpace=wrap;html=1;aspect=fixed;" vertex="1" parent="1">
          <mxGeometry x="-70" y="1250" width="520" height="520" as="geometry" />
        </mxCell>
        <mxCell id="_3qlMYkyY0_uglncItlu-9" value="" style="whiteSpace=wrap;html=1;aspect=fixed;" vertex="1" parent="1">
          <mxGeometry x="130" y="30" width="370" height="370" as="geometry" />
        </mxCell>
        <mxCell id="_3qlMYkyY0_uglncItlu-1" value="Student" style="rounded=0;whiteSpace=wrap;html=1;" vertex="1" parent="1">
          <mxGeometry x="350" y="200" width="120" height="60" as="geometry" />
        </mxCell>
        <mxCell id="_3qlMYkyY0_uglncItlu-2" value="Authentication&lt;br&gt;&amp;nbsp;Database&lt;br&gt;" style="rounded=0;whiteSpace=wrap;html=1;" vertex="1" parent="1">
          <mxGeometry x="350" y="60" width="120" height="60" as="geometry" />
        </mxCell>
        <mxCell id="_3qlMYkyY0_uglncItlu-8" style="edgeStyle=orthogonalEdgeStyle;rounded=0;orthogonalLoop=1;jettySize=auto;html=1;exitX=0;exitY=0.5;exitDx=0;exitDy=0;entryX=0;entryY=0.5;entryDx=0;entryDy=0;" edge="1" parent="1" source="_3qlMYkyY0_uglncItlu-3" target="_3qlMYkyY0_uglncItlu-2">
          <mxGeometry relative="1" as="geometry">
            <mxPoint x="140" y="80" as="targetPoint" />
          </mxGeometry>
        </mxCell>
        <mxCell id="_3qlMYkyY0_uglncItlu-3" value="login" style="rounded=0;whiteSpace=wrap;html=1;" vertex="1" parent="1">
          <mxGeometry x="190" y="320" width="120" height="60" as="geometry" />
        </mxCell>
        <mxCell id="_3qlMYkyY0_uglncItlu-5" value="" style="endArrow=classic;html=1;rounded=0;exitX=0.5;exitY=1;exitDx=0;exitDy=0;entryX=1;entryY=0.5;entryDx=0;entryDy=0;" edge="1" parent="1" source="_3qlMYkyY0_uglncItlu-1" target="_3qlMYkyY0_uglncItlu-3">
          <mxGeometry width="50" height="50" relative="1" as="geometry">
            <mxPoint x="400" y="310" as="sourcePoint" />
            <mxPoint x="450" y="260" as="targetPoint" />
            <Array as="points">
              <mxPoint x="410" y="350" />
            </Array>
          </mxGeometry>
        </mxCell>
        <mxCell id="_3qlMYkyY0_uglncItlu-10" value="Authentication" style="text;html=1;strokeColor=none;fillColor=none;align=center;verticalAlign=middle;whiteSpace=wrap;rounded=0;" vertex="1" parent="1">
          <mxGeometry x="150" y="40" width="60" height="30" as="geometry" />
        </mxCell>
        <mxCell id="_3qlMYkyY0_uglncItlu-12" value="&lt;font style=&quot;font-size: 9px;&quot;&gt;View Events&lt;/font&gt;" style="rounded=0;whiteSpace=wrap;html=1;" vertex="1" parent="1">
          <mxGeometry x="470" y="550" width="85" height="40" as="geometry" />
        </mxCell>
        <mxCell id="_3qlMYkyY0_uglncItlu-13" value="&lt;font style=&quot;font-size: 9px;&quot;&gt;View All Events&lt;/font&gt;" style="rounded=0;whiteSpace=wrap;html=1;" vertex="1" parent="1">
          <mxGeometry x="420" y="625" width="85" height="40" as="geometry" />
        </mxCell>
        <mxCell id="_3qlMYkyY0_uglncItlu-14" value="&lt;font style=&quot;font-size: 9px;&quot;&gt;View Individual Event&lt;/font&gt;" style="rounded=0;whiteSpace=wrap;html=1;" vertex="1" parent="1">
          <mxGeometry x="520" y="625" width="85" height="40" as="geometry" />
        </mxCell>
        <mxCell id="_3qlMYkyY0_uglncItlu-19" value="" style="endArrow=classic;html=1;rounded=0;exitX=0.5;exitY=1;exitDx=0;exitDy=0;entryX=0.5;entryY=0;entryDx=0;entryDy=0;" edge="1" parent="1" source="_3qlMYkyY0_uglncItlu-12" target="_3qlMYkyY0_uglncItlu-13">
          <mxGeometry width="50" height="50" relative="1" as="geometry">
            <mxPoint x="460" y="620" as="sourcePoint" />
            <mxPoint x="510" y="570" as="targetPoint" />
          </mxGeometry>
        </mxCell>
        <mxCell id="_3qlMYkyY0_uglncItlu-20" value="" style="endArrow=classic;html=1;rounded=0;exitX=0.5;exitY=1;exitDx=0;exitDy=0;entryX=0.5;entryY=0;entryDx=0;entryDy=0;" edge="1" parent="1" source="_3qlMYkyY0_uglncItlu-12" target="_3qlMYkyY0_uglncItlu-14">
          <mxGeometry width="50" height="50" relative="1" as="geometry">
            <mxPoint x="523" y="600" as="sourcePoint" />
            <mxPoint x="473" y="635" as="targetPoint" />
          </mxGeometry>
        </mxCell>
        <mxCell id="_3qlMYkyY0_uglncItlu-22" value="&lt;font style=&quot;font-size: 9px;&quot;&gt;Connect to Database&lt;/font&gt;" style="rounded=0;whiteSpace=wrap;html=1;" vertex="1" parent="1">
          <mxGeometry x="320" y="730" width="85" height="40" as="geometry" />
        </mxCell>
        <mxCell id="_3qlMYkyY0_uglncItlu-24" value="&lt;font style=&quot;font-size: 9px;&quot;&gt;Handle Event&lt;/font&gt;" style="rounded=0;whiteSpace=wrap;html=1;" vertex="1" parent="1">
          <mxGeometry x="125" y="550" width="85" height="40" as="geometry" />
        </mxCell>
        <mxCell id="_3qlMYkyY0_uglncItlu-25" value="&lt;font style=&quot;font-size: 9px;&quot;&gt;Create Event&lt;/font&gt;" style="rounded=0;whiteSpace=wrap;html=1;" vertex="1" parent="1">
          <mxGeometry x="25" y="625" width="85" height="40" as="geometry" />
        </mxCell>
        <mxCell id="_3qlMYkyY0_uglncItlu-26" value="&lt;font style=&quot;font-size: 9px;&quot;&gt;Modify Existing Event&lt;/font&gt;" style="rounded=0;whiteSpace=wrap;html=1;" vertex="1" parent="1">
          <mxGeometry x="125" y="625" width="85" height="40" as="geometry" />
        </mxCell>
        <mxCell id="_3qlMYkyY0_uglncItlu-27" value="" style="endArrow=classic;html=1;rounded=0;exitX=0.5;exitY=1;exitDx=0;exitDy=0;entryX=0.5;entryY=0;entryDx=0;entryDy=0;" edge="1" parent="1" source="_3qlMYkyY0_uglncItlu-24" target="_3qlMYkyY0_uglncItlu-25">
          <mxGeometry width="50" height="50" relative="1" as="geometry">
            <mxPoint x="65" y="620" as="sourcePoint" />
            <mxPoint x="115" y="570" as="targetPoint" />
          </mxGeometry>
        </mxCell>
        <mxCell id="_3qlMYkyY0_uglncItlu-28" value="" style="endArrow=classic;html=1;rounded=0;exitX=0.5;exitY=1;exitDx=0;exitDy=0;entryX=0.5;entryY=0;entryDx=0;entryDy=0;" edge="1" parent="1" source="_3qlMYkyY0_uglncItlu-24" target="_3qlMYkyY0_uglncItlu-26">
          <mxGeometry width="50" height="50" relative="1" as="geometry">
            <mxPoint x="128" y="600" as="sourcePoint" />
            <mxPoint x="78" y="635" as="targetPoint" />
          </mxGeometry>
        </mxCell>
        <mxCell id="_3qlMYkyY0_uglncItlu-29" value="&lt;font style=&quot;font-size: 9px;&quot;&gt;Delete Event&lt;/font&gt;" style="rounded=0;whiteSpace=wrap;html=1;" vertex="1" parent="1">
          <mxGeometry x="225" y="625" width="85" height="40" as="geometry" />
        </mxCell>
        <mxCell id="_3qlMYkyY0_uglncItlu-30" value="" style="endArrow=classic;html=1;rounded=0;entryX=0.5;entryY=0;entryDx=0;entryDy=0;" edge="1" parent="1" target="_3qlMYkyY0_uglncItlu-29">
          <mxGeometry width="50" height="50" relative="1" as="geometry">
            <mxPoint x="170" y="590" as="sourcePoint" />
            <mxPoint x="178" y="635" as="targetPoint" />
          </mxGeometry>
        </mxCell>
        <mxCell id="_3qlMYkyY0_uglncItlu-31" value="" style="endArrow=classic;html=1;rounded=0;exitX=0.5;exitY=1;exitDx=0;exitDy=0;entryX=0;entryY=0.5;entryDx=0;entryDy=0;" edge="1" parent="1" target="_3qlMYkyY0_uglncItlu-22">
          <mxGeometry width="50" height="50" relative="1" as="geometry">
            <mxPoint x="165" y="665" as="sourcePoint" />
            <mxPoint x="60" y="750" as="targetPoint" />
            <Array as="points">
              <mxPoint x="165" y="750" />
            </Array>
          </mxGeometry>
        </mxCell>
        <mxCell id="_3qlMYkyY0_uglncItlu-32" value="" style="endArrow=classic;html=1;rounded=0;exitX=0.5;exitY=1;exitDx=0;exitDy=0;entryX=0;entryY=0.75;entryDx=0;entryDy=0;" edge="1" parent="1" target="_3qlMYkyY0_uglncItlu-22">
          <mxGeometry width="50" height="50" relative="1" as="geometry">
            <mxPoint x="70" y="665" as="sourcePoint" />
            <mxPoint x="178" y="750" as="targetPoint" />
            <Array as="points">
              <mxPoint x="70" y="760" />
            </Array>
          </mxGeometry>
        </mxCell>
        <mxCell id="_3qlMYkyY0_uglncItlu-38" value="" style="endArrow=classic;html=1;rounded=0;entryX=1;entryY=0.25;entryDx=0;entryDy=0;exitX=0.5;exitY=1;exitDx=0;exitDy=0;" edge="1" parent="1" source="_3qlMYkyY0_uglncItlu-13" target="_3qlMYkyY0_uglncItlu-22">
          <mxGeometry relative="1" as="geometry">
            <mxPoint x="320" y="550" as="sourcePoint" />
            <mxPoint x="420" y="550" as="targetPoint" />
            <Array as="points">
              <mxPoint x="463" y="740" />
            </Array>
          </mxGeometry>
        </mxCell>
        <mxCell id="_3qlMYkyY0_uglncItlu-39" value="&lt;font style=&quot;font-size: 9px;&quot;&gt;Fetch All Events&lt;/font&gt;" style="edgeLabel;resizable=0;html=1;align=center;verticalAlign=middle;" connectable="0" vertex="1" parent="_3qlMYkyY0_uglncItlu-38">
          <mxGeometry relative="1" as="geometry" />
        </mxCell>
        <mxCell id="_3qlMYkyY0_uglncItlu-40" value="" style="endArrow=classic;html=1;rounded=0;entryX=1;entryY=0.5;entryDx=0;entryDy=0;exitX=0.5;exitY=1;exitDx=0;exitDy=0;" edge="1" parent="1" source="_3qlMYkyY0_uglncItlu-14" target="_3qlMYkyY0_uglncItlu-22">
          <mxGeometry relative="1" as="geometry">
            <mxPoint x="558" y="675" as="sourcePoint" />
            <mxPoint x="500" y="750" as="targetPoint" />
            <Array as="points">
              <mxPoint x="563" y="750" />
            </Array>
          </mxGeometry>
        </mxCell>
        <mxCell id="_3qlMYkyY0_uglncItlu-41" value="&lt;font style=&quot;font-size: 9px;&quot;&gt;Fetch that Specific Event&lt;/font&gt;" style="edgeLabel;resizable=0;html=1;align=center;verticalAlign=middle;" connectable="0" vertex="1" parent="_3qlMYkyY0_uglncItlu-40">
          <mxGeometry relative="1" as="geometry" />
        </mxCell>
        <mxCell id="_3qlMYkyY0_uglncItlu-42" value="" style="endArrow=classic;html=1;rounded=0;exitX=0.5;exitY=1;exitDx=0;exitDy=0;entryX=0;entryY=0.25;entryDx=0;entryDy=0;" edge="1" parent="1" source="_3qlMYkyY0_uglncItlu-29" target="_3qlMYkyY0_uglncItlu-22">
          <mxGeometry relative="1" as="geometry">
            <mxPoint x="320" y="550" as="sourcePoint" />
            <mxPoint x="420" y="550" as="targetPoint" />
            <Array as="points">
              <mxPoint x="270" y="740" />
            </Array>
          </mxGeometry>
        </mxCell>
        <mxCell id="_3qlMYkyY0_uglncItlu-43" value="&lt;font style=&quot;font-size: 8px;&quot;&gt;Remove Database Entry&lt;/font&gt;" style="edgeLabel;resizable=0;html=1;align=center;verticalAlign=middle;" connectable="0" vertex="1" parent="_3qlMYkyY0_uglncItlu-42">
          <mxGeometry relative="1" as="geometry" />
        </mxCell>
      </root>
    </mxGraphModel>
  </diagram>
</mxfile>
